<svg xmlns="http://www.w3.org/2000/svg" version="1.1" xmlns:xlink="http://www.w3.org/1999/xlink" xmlns:svgjs="http://svgjs.dev/svgjs" width="1500" height="185" viewBox="0 0 1500 185"><g transform="matrix(1,0,0,1,-0.9090909090909918,-1.4254037181148647)"><svg viewBox="0 0 396 49" data-background-color="#ebe3d6" preserveAspectRatio="xMidYMid meet" height="185" width="1500" xmlns="http://www.w3.org/2000/svg" xmlns:xlink="http://www.w3.org/1999/xlink"><g id="tight-bounds" transform="matrix(1,0,0,1,0.2400000000000091,0.3775393631763677)"><svg viewBox="0 0 395.52 48.24492127364725" height="48.24492127364725" width="395.52"><g><svg viewBox="0 0 664.7515007636252 81.08536564745135" height="48.24492127364725" width="395.52"><g><rect width="3.9771846228819827" height="81.08536564745135" x="254.84283807037164" y="0" fill="#ffffff" opacity="1" stroke-width="0" stroke="transparent" fill-opacity="1" class="rect-yte-0" data-fill-palette-color="primary" rx="1%" id="yte-0" data-palette-color="#ffffff"></rect></g><g transform="matrix(1,0,0,1,269.2315007636253,6.757113803954276)"><svg viewBox="0 0 395.52 67.5711380395428" height="67.5711380395428" width="395.52"><g id="textblocktransform"><svg viewBox="0 0 395.52 67.5711380395428" height="67.5711380395428" width="395.52" id="textblock"><g><svg viewBox="0 0 395.52 44.10223008849558" height="44.10223008849558" width="395.52"><g transform="matrix(1,0,0,1,0,0)"><svg width="395.52" viewBox="1.8 -37.3 338.96999999999997 37.8" height="44.10223008849558" data-palette-color="#ffffff"><path d="M9.65 0.5Q7.55 0.5 5.4-0.03 3.25-0.55 1.8-1.8L1.8-1.8 4.05-6.95Q4.95-5.9 6.08-5.38 7.2-4.85 8.85-4.85L8.85-4.85Q10.4-4.85 11.35-5.4 12.3-5.95 12.78-7.4 13.25-8.85 13.25-11.55L13.25-11.55 13.25-36.75 18.8-36.75 18.8-10.15Q18.8-4.55 16.28-2.02 13.75 0.5 9.65 0.5L9.65 0.5ZM32.7 0.5Q30.6 0.5 28.45-0.03 26.3-0.55 24.85-1.8L24.85-1.8 27.1-6.95Q28-5.9 29.12-5.38 30.25-4.85 31.9-4.85L31.9-4.85Q33.45-4.85 34.4-5.4 35.35-5.95 35.82-7.4 36.3-8.85 36.3-11.55L36.3-11.55 36.3-36.75 41.85-36.75 41.85-10.15Q41.85-4.55 39.32-2.02 36.8 0.5 32.7 0.5L32.7 0.5ZM74.8 0L68.34 0 60.95-13.9Q58.64-13.8 56.84-13.8L56.84-13.8 55.45-13.8 55.45 0 49.99 0 49.99-36.75 58.34-36.75Q64.69-36.75 68.8-34.13 72.89-31.5 72.89-25.6L72.89-25.6Q72.89-21.9 71.17-19.23 69.44-16.55 66.05-15.1L66.05-15.1 74.8 0ZM55.45-18.35L58.99-18.35Q63.89-18.35 65.72-20.48 67.55-22.6 67.55-25.55L67.55-25.55Q67.55-32.1 58.8-32.1L58.8-32.1 55.45-32.1 55.45-18.35ZM88.94 0.5Q85.94 0.5 82.99-0.55 80.04-1.6 78.74-2.9L78.74-2.9 81.39-7.65Q82.44-6.7 84.67-5.68 86.89-4.65 88.94-4.65L88.94-4.65Q91.59-4.65 93.27-5.9 94.94-7.15 94.94-9.35L94.94-9.35Q94.94-11.05 94.04-12.3 93.14-13.55 91.84-14.38 90.54-15.2 88.14-16.4L88.14-16.4Q85.29-17.8 84.24-18.5L84.24-18.5Q79.39-21.75 79.39-27.5L79.39-27.5Q79.39-32.25 82.54-34.77 85.69-37.3 90.49-37.3L90.49-37.3Q95.64-37.3 99.24-34.35L99.24-34.35 96.59-29.8Q95.64-30.8 93.92-31.53 92.19-32.25 90.24-32.25L90.24-32.25Q87.74-32.25 86.32-31.13 84.89-30 84.89-27.8L84.89-27.8Q84.89-26.25 85.79-25.03 86.69-23.8 88.07-22.9 89.44-22 91.79-20.7L91.79-20.7Q94.04-19.45 95.24-18.73 96.44-18 97.49-17L97.49-17Q98.94-15.7 99.84-13.9 100.74-12.1 100.74-9.95L100.74-9.95Q100.74-6.6 99.22-4.25 97.69-1.9 95.02-0.7 92.34 0.5 88.94 0.5L88.94 0.5ZM116.54 0.5Q113.44 0.5 110.81-0.98 108.19-2.45 106.62-5.18 105.04-7.9 105.04-11.55L105.04-11.55Q105.04-15.15 106.42-17.85 107.79-20.55 110.34-22.05 112.89-23.55 116.34-23.55L116.34-23.55Q118.34-23.55 120.09-22.85 121.84-22.15 123.04-21.13 124.24-20.1 124.64-19.1L124.64-19.1 124.74-22.95 129.89-22.95 129.89 0 124.79 0 124.69-4.05Q123.84-2.25 121.59-0.88 119.34 0.5 116.54 0.5L116.54 0.5ZM117.44-4Q120.29-4 122.24-5.98 124.19-7.95 124.19-11.15L124.19-11.15 124.19-11.5Q124.19-13.65 123.29-15.35 122.39-17.05 120.84-18 119.29-18.95 117.44-18.95L117.44-18.95Q114.24-18.95 112.49-16.88 110.74-14.8 110.74-11.5L110.74-11.5Q110.74-8.15 112.47-6.08 114.19-4 117.44-4L117.44-4ZM137.14 0L137.14-22.95 142.44-22.95 142.49-18.75Q143.44-20.85 145.49-22.2 147.54-23.55 150.29-23.55L150.29-23.55Q153.84-23.55 155.74-22.08 157.64-20.6 158.29-17.95 158.94-15.3 158.94-11.05L158.94-11.05 158.94 0 153.54 0 153.54-10.9Q153.54-15.25 152.69-17.18 151.84-19.1 149.19-19.1L149.19-19.1Q147.69-19.1 146.14-18.18 144.59-17.25 143.56-15.5 142.54-13.75 142.54-11.4L142.54-11.4 142.54 0 137.14 0ZM176.03 0.5Q172.94 0.5 170.31-0.98 167.69-2.45 166.11-5.18 164.53-7.9 164.53-11.55L164.53-11.55Q164.53-17 167.59-20.28 170.64-23.55 175.84-23.55L175.84-23.55Q178.74-23.55 181.14-22.13 183.54-20.7 184.39-18.7L184.39-18.7 184.14-22.6 184.14-36.75 189.44-36.75 189.44 0 184.29 0 184.19-4.05Q183.34-2.25 181.09-0.88 178.84 0.5 176.03 0.5L176.03 0.5ZM176.94-4.05Q179.78-4.05 181.74-6.03 183.69-8 183.69-11.2L183.69-11.2 183.69-11.55Q183.69-13.7 182.79-15.4 181.89-17.1 180.34-18.05 178.78-19 176.94-19L176.94-19Q173.74-19 171.99-16.93 170.24-14.85 170.24-11.55L170.24-11.55Q170.24-8.2 171.96-6.13 173.69-4.05 176.94-4.05L176.94-4.05ZM217.38 0L210.58-12.75 203.78 0 202.83 0 193.18-22.95 198.98-22.95 203.93-9.6 210.48-22.95 210.68-22.95 217.28-9.7 222.23-22.95 227.93-22.95 218.33 0 217.38 0ZM232.03 0L232.03-22.95 237.63-22.95 237.63 0 232.03 0ZM234.78-27.25Q233.23-27.25 232.18-28.3 231.13-29.35 231.13-30.9L231.13-30.9Q231.13-32.3 232.18-33.3 233.23-34.3 234.78-34.3L234.78-34.3Q236.28-34.3 237.33-33.3 238.38-32.3 238.38-30.9L238.38-30.9Q238.38-29.35 237.36-28.3 236.33-27.25 234.78-27.25L234.78-27.25ZM255.83 0.5Q252.43 0.5 249.7-0.98 246.98-2.45 245.38-5.23 243.78-8 243.78-11.75L243.78-11.75Q243.78-15.3 245.25-17.98 246.73-20.65 249.4-22.1 252.08-23.55 255.58-23.55L255.58-23.55Q258.23-23.55 260.15-22.88 262.08-22.2 263.18-21.2L263.18-21.2 260.78-16.85Q258.68-18.95 256.03-18.95L256.03-18.95Q252.83-18.95 251.15-17 249.48-15.05 249.48-11.8L249.48-11.8Q249.48-8.1 251.2-6.05 252.93-4 256.03-4L256.03-4Q257.58-4 259.05-4.45 260.53-4.9 261.33-5.5L261.33-5.5 263.28-1.7Q262.18-0.85 260.2-0.18 258.23 0.5 255.83 0.5L255.83 0.5ZM268.68 0L268.68-36.75 273.93-36.75 273.93-22.95 273.73-18.7Q274.68-20.8 276.78-22.18 278.88-23.55 281.68-23.55L281.68-23.55Q285.23-23.55 287.13-22.08 289.03-20.6 289.68-17.95 290.33-15.3 290.33-11.05L290.33-11.05 290.33 0 284.98 0 284.98-11.1Q284.98-14 284.65-15.65 284.33-17.3 283.35-18.15 282.38-19 280.53-19L280.53-19Q279.03-19 277.5-18.1 275.98-17.2 274.98-15.48 273.98-13.75 273.98-11.4L273.98-11.4 273.98 0 268.68 0ZM308.02 0.5Q303.92 0.5 301.17-1.13 298.42-2.75 297.12-5.48 295.82-8.2 295.82-11.45L295.82-11.45Q295.82-15.1 297.35-17.85 298.87-20.6 301.57-22.08 304.27-23.55 307.67-23.55L307.67-23.55Q312.97-23.55 315.55-20.63 318.12-17.7 318.12-12.4L318.12-12.4Q318.12-11.05 317.97-9.6L317.97-9.6 301.47-9.6Q302.02-6.55 303.65-5.2 305.27-3.85 308.17-3.85L308.17-3.85Q310.57-3.85 312.12-4.25 313.67-4.65 314.97-5.35L314.97-5.35 316.62-1.5Q315.37-0.7 313.22-0.1 311.07 0.5 308.02 0.5L308.02 0.5ZM301.47-13.35L312.87-13.35Q312.92-16.45 311.52-17.73 310.12-19 307.52-19L307.52-19Q302.27-19 301.47-13.35L301.47-13.35ZM331.67 0.5Q329.27 0.5 326.7-0.13 324.12-0.75 323.02-1.6L323.02-1.6 324.82-5.85Q327.82-3.75 331.67-3.75L331.67-3.75Q335.52-3.75 335.52-6L335.52-6Q335.52-7 334.72-7.55 333.92-8.1 331.87-8.85L331.87-8.85 329.97-9.55Q326.97-10.75 325.22-12.43 323.47-14.1 323.47-16.85L323.47-16.85Q323.47-20 325.95-21.78 328.42-23.55 332.57-23.55L332.57-23.55Q334.62-23.55 336.6-23.1 338.57-22.65 339.62-21.95L339.62-21.95 337.67-17.65Q337.02-18.3 335.6-18.78 334.17-19.25 332.42-19.25L332.42-19.25Q328.87-19.25 328.87-17.1L328.87-17.1Q328.87-15.9 329.82-15.28 330.77-14.65 332.92-13.9L332.92-13.9Q333.12-13.85 334.47-13.35L334.47-13.35Q337.67-12.1 339.22-10.5 340.77-8.9 340.77-6.4L340.77-6.4Q340.77-3 338.2-1.25 335.62 0.5 331.67 0.5L331.67 0.5Z" opacity="1" transform="matrix(1,0,0,1,0,0)" fill="#ffffff" class="wordmark-text-0" data-fill-palette-color="primary" id="text-0"></path></svg></g></svg></g><g transform="matrix(1,0,0,1,0,54.51370815886726)"><svg viewBox="0 0 232.209792 13.057429880675537" height="13.057429880675537" width="232.209792"><g transform="matrix(1,0,0,1,0,0)"><svg width="232.209792" viewBox="1.49 -36.01 640.35 36.01" height="13.057429880675537" data-palette-color="#ffffff"><path d="M1.49-30L1.49-35.01 29.49-35.01 29.49-30 17.99-30 17.99 0 12.99 0 12.99-30 1.49-30ZM58.01-21.19L58.01 0 53.2 0 53.2-21.19 39.79-21.19 39.79 0 35.01 0 35.01-36.01 39.79-36.01 39.79-21.41Q39.84-22.36 40.23-23.21 40.62-24.05 41.27-24.67 41.92-25.29 42.77-25.65 43.63-26 44.6-26L44.6-26 53.2-26Q54.2-26 55.08-25.62 55.95-25.24 56.6-24.6 57.25-23.95 57.63-23.07 58.01-22.19 58.01-21.19L58.01-21.19ZM88.01-21.19L88.01-10.55 70.8-10.55 70.8-4.81 88.01-4.81 88.01 0 70.8 0Q69.82 0 68.94-0.38 68.06-0.76 67.41-1.4 66.77-2.05 66.39-2.93 66.01-3.81 66.01-4.81L66.01-4.81 66.01-21.19Q66.01-22.19 66.39-23.07 66.77-23.95 67.41-24.6 68.06-25.24 68.94-25.62 69.82-26 70.8-26L70.8-26 83.2-26Q84.2-26 85.08-25.62 85.96-25.24 86.6-24.6 87.25-23.95 87.63-23.07 88.01-22.19 88.01-21.19L88.01-21.19ZM83.2-21.19L70.8-21.19 70.8-15.36 83.2-15.36 83.2-21.19ZM136.54-35.01L141.54-35.01 141.54 0 136.54 0 136.54-14.99 116.49-14.99 116.49 0 111.49 0 111.49-35.01 116.49-35.01 116.49-20 136.54-20 136.54-35.01ZM172.52-21.19L172.52-4.81Q172.52-3.81 172.14-2.93 171.76-2.05 171.12-1.4 170.47-0.76 169.6-0.38 168.74 0 167.74 0L167.74 0 154.82 0Q153.84 0 152.97-0.38 152.09-0.76 151.44-1.4 150.79-2.05 150.41-2.93 150.04-3.81 150.04-4.81L150.04-4.81 150.04-21.19Q150.04-22.19 150.41-23.07 150.79-23.95 151.44-24.6 152.09-25.24 152.97-25.62 153.84-26 154.82-26L154.82-26 167.74-26Q168.74-26 169.6-25.62 170.47-25.24 171.12-24.6 171.76-23.95 172.14-23.07 172.52-22.19 172.52-21.19L172.52-21.19ZM167.74-21.19L154.82-21.19 154.82-4.81 167.74-4.81 167.74-21.19ZM212.12-21.19L201.13-21.19 201.13 0 196.32 0 196.32-21.19 185.31-21.19 185.31 0 180.53 0 180.53-26 185.31-26 185.31-21.41Q185.36-22.36 185.75-23.21 186.14-24.05 186.79-24.67 187.44-25.29 188.29-25.65 189.15-26 190.12-26L190.12-26 196.32-26Q197.28-26 198.13-25.65 198.98-25.29 199.64-24.67 200.3-24.05 200.71-23.21 201.11-22.36 201.13-21.41L201.13-21.41Q201.18-22.36 201.56-23.21 201.94-24.05 202.59-24.67 203.23-25.29 204.09-25.65 204.94-26 205.92-26L205.92-26 212.12-26Q213.12-26 214-25.62 214.88-25.24 215.52-24.6 216.17-23.95 216.55-23.07 216.93-22.19 216.93-21.19L216.93-21.19 216.93 0 212.12 0 212.12-21.19ZM246.93-21.19L246.93-10.55 229.72-10.55 229.72-4.81 246.93-4.81 246.93 0 229.72 0Q228.74 0 227.86-0.38 226.98-0.76 226.34-1.4 225.69-2.05 225.31-2.93 224.93-3.81 224.93-4.81L224.93-4.81 224.93-21.19Q224.93-22.19 225.31-23.07 225.69-23.95 226.34-24.6 226.98-25.24 227.86-25.62 228.74-26 229.72-26L229.72-26 242.12-26Q243.12-26 244-25.62 244.88-25.24 245.53-24.6 246.17-23.95 246.55-23.07 246.93-22.19 246.93-21.19L246.93-21.19ZM242.12-21.19L229.72-21.19 229.72-15.36 242.12-15.36 242.12-21.19ZM300.42-30L300.42-5Q300.42-3.98 300.03-3.06 299.64-2.15 298.95-1.46 298.27-0.78 297.35-0.39 296.44 0 295.41 0L295.41 0 275.42 0Q274.39 0 273.48-0.39 272.56-0.78 271.88-1.46 271.19-2.15 270.8-3.06 270.41-3.98 270.41-5L270.41-5 270.41-30Q270.41-31.03 270.8-31.95 271.19-32.86 271.88-33.53 272.56-34.2 273.48-34.61 274.39-35.01 275.42-35.01L275.42-35.01 295.41-35.01Q296.44-35.01 297.35-34.61 298.27-34.2 298.95-33.53 299.64-32.86 300.03-31.95 300.42-31.03 300.42-30L300.42-30ZM295.41-30L275.42-30 275.42-5 295.41-5 295.41-30ZM327.1-31.2L318.55-31.2 318.55-26 327.1-26 327.1-21.19 318.55-21.19 318.55 0 313.74 0 313.74-21.19 307.4-21.19 307.4-26 313.74-26 313.74-31.2Q313.74-32.2 314.12-33.07 314.5-33.94 315.16-34.59 315.82-35.25 316.7-35.63 317.58-36.01 318.55-36.01L318.55-36.01 327.1-36.01 327.1-31.2ZM371.09-14.99L354.1-14.99Q353.07-14.99 352.16-15.39 351.24-15.8 350.56-16.47 349.87-17.14 349.48-18.05 349.09-18.97 349.09-20L349.09-20 349.09-30Q349.09-31.03 349.48-31.95 349.87-32.86 350.56-33.53 351.24-34.2 352.16-34.61 353.07-35.01 354.1-35.01L354.1-35.01 371.09-35.01Q372.11-35.01 373.03-34.61 373.94-34.2 374.63-33.53 375.31-32.86 375.7-31.95 376.09-31.03 376.09-30L376.09-30 376.09-25.49 371.09-25.49 371.09-30 354.1-30 354.1-20 371.09-20Q372.11-20 373.03-19.6 373.94-19.21 374.63-18.53 375.31-17.85 375.7-16.93 376.09-16.02 376.09-14.99L376.09-14.99 376.09-5Q376.09-3.98 375.7-3.06 375.31-2.15 374.63-1.46 373.94-0.78 373.03-0.39 372.11 0 371.09 0L371.09 0 353.61 0Q352.58 0 351.67-0.39 350.75-0.78 350.07-1.46 349.38-2.15 348.99-3.06 348.6-3.98 348.6-5L348.6-5 348.6-9.5 353.61-9.5 353.61-5 371.09-5 371.09-14.99ZM384.61-4.81L384.61-11.35Q384.61-12.35 384.99-13.22 385.37-14.09 386.01-14.75 386.66-15.41 387.54-15.78 388.42-16.16 389.4-16.16L389.4-16.16 401.8-16.16 401.8-21.19 386.1-21.19 386.1-26 401.8-26Q402.8-26 403.68-25.62 404.56-25.24 405.2-24.6 405.85-23.95 406.23-23.07 406.61-22.19 406.61-21.19L406.61-21.19 406.61 0 401.8 0 401.8-4.39Q401.73-3.49 401.31-2.69 400.9-1.88 400.25-1.28 399.6-0.68 398.77-0.34 397.94 0 397.01 0L397.01 0 389.4 0Q388.42 0 387.54-0.38 386.66-0.76 386.01-1.4 385.37-2.05 384.99-2.93 384.61-3.81 384.61-4.81L384.61-4.81ZM389.4-11.35L389.4-4.81 401.8-4.81 401.8-11.35 389.4-11.35ZM437.61-21.19L437.61 0 432.8 0 432.8-21.19 419.4-21.19 419.4 0 414.61 0 414.61-26 419.4-26 419.4-21.41Q419.45-22.36 419.84-23.21 420.23-24.05 420.88-24.67 421.52-25.29 422.38-25.65 423.23-26 424.21-26L424.21-26 432.8-26Q433.8-26 434.68-25.62 435.56-25.24 436.21-24.6 436.85-23.95 437.23-23.07 437.61-22.19 437.61-21.19L437.61-21.19ZM445.62-4.81L445.62-21.19Q445.62-22.19 446-23.07 446.37-23.95 447.02-24.6 447.67-25.24 448.55-25.62 449.43-26 450.4-26L450.4-26 463.81-26 463.81-36.01 468.61-36.01 468.61 0 463.81 0 463.81-4.39Q463.73-3.49 463.32-2.69 462.9-1.88 462.25-1.28 461.61-0.68 460.78-0.34 459.95 0 459.02 0L459.02 0 450.4 0Q449.43 0 448.55-0.38 447.67-0.76 447.02-1.4 446.37-2.05 446-2.93 445.62-3.81 445.62-4.81L445.62-4.81ZM450.4-21.19L450.4-4.81 463.81-4.81 463.81-21.19 450.4-21.19ZM487.02 0L482.02 0 473.62-26 478.48-26 484.63-6.4 490.37-26 495.27-26 501.01-6.4 507.16-26 512.02-26 503.62 0 498.62 0 492.81-19.09 487.02 0ZM517.27-26L522.08-26 522.08 0 517.27 0 517.27-26ZM517.02-31.01L517.02-36.01 522.32-36.01 522.32-31.01 517.02-31.01ZM547.51-21.19L535.11-21.19 535.11-4.81 547.51-4.81 547.51-9.2 552.32-9.2 552.32-4.81Q552.32-3.81 551.94-2.93 551.57-2.05 550.92-1.4 550.27-0.76 549.39-0.38 548.51 0 547.51 0L547.51 0 535.11 0Q534.13 0 533.26-0.38 532.38-0.76 531.73-1.4 531.08-2.05 530.7-2.93 530.33-3.81 530.33-4.81L530.33-4.81 530.33-21.19Q530.33-22.19 530.7-23.07 531.08-23.95 531.73-24.6 532.38-25.24 533.26-25.62 534.13-26 535.11-26L535.11-26 547.51-26Q548.51-26 549.39-25.62 550.27-25.24 550.92-24.6 551.57-23.95 551.94-23.07 552.32-22.19 552.32-21.19L552.32-21.19 552.32-16.8 547.51-16.8 547.51-21.19ZM583.33-21.19L583.33 0 578.52 0 578.52-21.19 565.11-21.19 565.11 0 560.33 0 560.33-36.01 565.11-36.01 565.11-21.41Q565.16-22.36 565.55-23.21 565.94-24.05 566.59-24.67 567.24-25.29 568.09-25.65 568.95-26 569.92-26L569.92-26 578.52-26Q579.52-26 580.4-25.62 581.28-25.24 581.92-24.6 582.57-23.95 582.95-23.07 583.33-22.19 583.33-21.19L583.33-21.19ZM613.33-21.19L613.33-10.55 596.12-10.55 596.12-4.81 613.33-4.81 613.33 0 596.12 0Q595.14 0 594.26-0.38 593.38-0.76 592.74-1.4 592.09-2.05 591.71-2.93 591.33-3.81 591.33-4.81L591.33-4.81 591.33-21.19Q591.33-22.19 591.71-23.07 592.09-23.95 592.74-24.6 593.38-25.24 594.26-25.62 595.14-26 596.12-26L596.12-26 608.52-26Q609.52-26 610.4-25.62 611.28-25.24 611.93-24.6 612.57-23.95 612.95-23.07 613.33-22.19 613.33-21.19L613.33-21.19ZM608.52-21.19L596.12-21.19 596.12-15.36 608.52-15.36 608.52-21.19ZM620.82-4.81L637.03-4.81 637.03-10.84 625.63-10.84Q624.63-10.84 623.75-11.22 622.87-11.6 622.23-12.24 621.58-12.89 621.2-13.77 620.82-14.65 620.82-15.65L620.82-15.65 620.82-21.19Q620.82-22.19 621.2-23.07 621.58-23.95 622.23-24.6 622.87-25.24 623.75-25.62 624.63-26 625.63-26L625.63-26 640.84-26 640.84-21.19 625.63-21.19 625.63-15.65 637.03-15.65Q638.03-15.65 638.9-15.27 639.77-14.89 640.43-14.25 641.09-13.6 641.46-12.72 641.84-11.84 641.84-10.84L641.84-10.84 641.84-4.81Q641.84-3.81 641.46-2.93 641.09-2.05 640.43-1.4 639.77-0.76 638.9-0.38 638.03 0 637.03 0L637.03 0 620.82 0 620.82-4.81Z" opacity="1" transform="matrix(1,0,0,1,0,0)" fill="#ffffff" class="slogan-text-1" data-fill-palette-color="secondary" id="text-1"></path></svg></g></svg></g></svg></g></svg></g><g transform="matrix(1,0,0,1,0,5.229141063725677)"><svg viewBox="0 0 244.43135999999996 70.62708352" height="70.62708352" width="244.43135999999996"><g><svg xmlns="http://www.w3.org/2000/svg" xmlns:xlink="http://www.w3.org/1999/xlink" version="1.1" x="0" y="0" viewBox="5 1.444 90 26.005000000000003" enable-background="new 0 0 100 28.893" xml:space="preserve" height="70.62708352" width="244.43135999999996" class="icon-icon-0" data-fill-palette-color="accent" id="icon-0"><path d="M89.59 16.819C89.842 16.409 90 15.916 90 15.373 90 14.465 89.583 13.676 88.966 13.238 90.653 12.67 91.666 9.915 91.666 7.873 91.666 5.205 85.217 1.444 83.571 1.444H16.905C15.259 1.444 8.81 5.204 8.81 7.873 8.81 9.744 9.66 12.216 11.099 13.055 10.317 13.424 9.762 14.322 9.762 15.373 9.762 15.909 9.917 16.396 10.163 16.802 7.049 17.522 5 18.537 5 18.826 5 19.055 6.296 18.781 8.392 18.448 8.061 19.137 7.858 20.005 7.858 20.975 7.858 22.342 8.25 23.523 8.856 24.254A7 7 0 0 0 8.81 25.017C8.81 26.129 8.81 26.637 22.38 27.079 29.731 27.317 39.625 27.449 50.239 27.449S70.746 27.317 78.098 27.079C91.668 26.637 91.668 26.129 91.668 25.017 91.668 24.865 91.661 24.708 91.65 24.548 92.24 23.769 92.62 22.58 92.62 21.207 92.62 20.244 92.431 19.373 92.118 18.665 93.908 19.011 95 19.273 95 19.064 95 18.808 89.728 16.853 89.59 16.819M89.048 15.373C89.048 15.872 88.866 16.312 88.588 16.596A26.3 26.3 0 0 0 83.334 16.05C80.803 16.05 78.466 16.108 76.554 16.206A128 128 0 0 0 70 16.05C68.266 16.05 66.626 16.078 65.146 16.126L64.995 16.121A1.9 1.9 0 0 1 64.844 15.374C64.844 14.52 65.368 13.826 66.013 13.826H87.879C88.524 13.826 89.048 14.519 89.048 15.373M10.714 7.873C10.714 6.659 15.737 3.417 16.904 3.349H17.862C17.863 3.872 18.146 4.376 18.646 4.627L25.789 8.198A1.43 1.43 0 1 0 27.067 5.642L22.48 3.349H26.91C26.911 3.872 27.194 4.376 27.694 4.627L34.837 8.198A1.43 1.43 0 1 0 36.115 5.642L31.528 3.348H35.958C35.959 3.871 36.242 4.375 36.742 4.626L43.885 8.197A1.43 1.43 0 1 0 45.163 5.641L40.576 3.347H45.006C45.007 3.87 45.29 4.374 45.79 4.625L52.933 8.196A1.43 1.43 0 1 0 54.211 5.64L49.624 3.346H54.054C54.055 3.869 54.338 4.373 54.838 4.624L61.981 8.195A1.43 1.43 0 1 0 63.259 5.639L58.672 3.345H63.102C63.103 3.868 63.386 4.372 63.886 4.623L71.029 8.194A1.43 1.43 0 1 0 72.307 5.638L67.72 3.344H72.15C72.151 3.867 72.434 4.371 72.934 4.622L80.077 8.193A1.43 1.43 0 1 0 81.355 5.637L76.768 3.343H83.567C84.741 3.411 89.764 6.653 89.764 7.867 89.764 9.711 88.782 11.438 88.335 11.438H12.145C11.696 11.445 10.714 9.718 10.714 7.873M63.991 16.092C63.58 16.082 63.158 16.074 62.729 16.067 62.785 15.846 62.823 15.616 62.823 15.373 62.823 14.539 62.471 13.804 61.937 13.349H64.778C64.244 13.803 63.892 14.539 63.892 15.373 63.892 15.625 63.931 15.864 63.991 16.092M61.87 15.373C61.87 15.619 61.823 15.848 61.745 16.055 61.328 16.051 60.905 16.049 60.476 16.049 57.724 16.049 55.199 16.118 53.204 16.231A125 125 0 0 0 46.191 16.049C43.66 16.049 41.323 16.107 39.411 16.205 38.911 16.179 38.377 16.156 37.826 16.136A1.9 1.9 0 0 1 37.668 15.372C37.668 14.518 38.192 13.824 38.837 13.824H60.703C61.346 13.826 61.87 14.519 61.87 15.373M36.817 16.104C36.476 16.094 36.129 16.086 35.774 16.079 35.832 15.855 35.87 15.62 35.87 15.373 35.87 14.539 35.518 13.804 34.984 13.349H37.6C37.066 13.803 36.714 14.539 36.714 15.373 36.715 15.63 36.754 15.873 36.817 16.104M11.883 13.826H33.749C34.394 13.826 34.918 14.52 34.918 15.374 34.918 15.623 34.869 15.855 34.79 16.064 34.16 16.056 33.517 16.05 32.857 16.05 29.644 16.05 26.735 16.143 24.625 16.293 22.54 16.145 19.747 16.05 16.666 16.05A29 29 0 0 0 11.168 16.59C10.894 16.307 10.714 15.87 10.714 15.374 10.714 14.519 11.238 13.826 11.883 13.826M50.238 25.543C27.688 25.543 13.59 24.983 10.747 24.417 10.922 22.815 11.745 21.445 12.143 21.445H88.333C88.731 21.445 89.553 22.815 89.729 24.417 86.886 24.984 72.788 25.543 50.238 25.543M91.388 23.018C90.909 21.222 89.833 19.54 88.334 19.54H12.144C10.688 19.54 9.631 21.125 9.133 22.862A5.3 5.3 0 0 1 8.81 20.975C8.81 19.752 9.156 18.786 9.593 18.267A56 56 0 0 1 13.355 17.848H86.385A49 49 0 0 1 90.921 18.443C91.346 19.028 91.667 20.003 91.667 21.207 91.667 21.896 91.557 22.507 91.388 23.018" fill="#f39361" data-fill-palette-color="accent"></path></svg></g></svg></g></svg></g><defs></defs></svg><rect width="395.52" height="48.24492127364725" fill="none" stroke="none" visibility="hidden"></rect></g></svg></g></svg>